<?xml version="1.0" encoding="utf-8"?>
<!-- Generator: Adobe Illustrator 19.0.0, SVG Export Plug-In . SVG Version: 6.00 Build 0)  -->
<svg version="1.1" id="Layer_1" xmlns="http://www.w3.org/2000/svg" xmlns:xlink="http://www.w3.org/1999/xlink" x="0px" y="0px"
	 viewBox="-390 268.3 60 60" style="enable-background:new -390 268.3 60 60;" xml:space="preserve">
<style type="text/css">
	.st0{fill:#FFFFFF;}
</style>
<title></title>
<desc></desc>
<g>
	<g>
		<g>
			<path d="M-387,268.3h54c1.7,0,3,1.3,3,3v54c0,1.7-1.3,3-3,3h-54c-1.7,0-3-1.3-3-3v-54C-390,269.6-388.7,268.3-387,268.3z"/>
		</g>
		<g>
			<path class="st0" d="M-368.1,312.1v-18.3h-5.6v18.3H-368.1z M-368.1,287.3c0-1.6-1.1-2.9-2.9-2.9c-1.8,0-2.9,1.3-2.9,2.9
				c0,1.6,1.1,2.9,2.9,2.9h0C-369.3,290.2-368.1,288.9-368.1,287.3z M-358.9,312.1v-10.4c0-0.6,0.1-1.1,0.2-1.5
				c0.5-1.1,1.5-2.3,3.2-2.3c2.2,0,3.6,1.3,3.6,3.8v10.4h5.7v-10.7c0-5.7-3.1-8.4-7.1-8.4c-3.4,0-4.8,1.9-5.6,3.1l0-2.4h-5.7
				c0.1,1.8,0,18.4,0,18.4L-358.9,312.1L-358.9,312.1z"/>
		</g>
	</g>
</g>
</svg>
