<?xml version="1.0" encoding="utf-8"?>
<!-- Generator: Adobe Illustrator 19.2.1, SVG Export Plug-In . SVG Version: 6.00 Build 0)  -->
<svg version="1.1" id="Layer_1" xmlns="http://www.w3.org/2000/svg" xmlns:xlink="http://www.w3.org/1999/xlink" x="0px" y="0px"
	 viewBox="0 0 730.3 203" style="enable-background:new 0 0 730.3 203;" xml:space="preserve">
<style type="text/css">
	.st0{fill:#E89324;}
	.st1{fill:#353535;}
</style>
<g id="XMLID_1_">
	<path class="st0" d="M134.8,38.6v129.2h-19.2v-58.2H48.2v58.2H28.9V38.6h19.3v57.1h67.4V38.6H134.8z"/>
	<path class="st0" d="M154.6,89.1c5.1-4.9,10.6-8.5,16.6-10.9c6-2.4,12.5-3.6,19.7-3.6c5.2,0,9.8,0.9,13.9,2.6
		c4,1.7,7.4,4.1,10.2,7.2c2.8,3.1,4.8,6.7,6.3,11c1.4,4.3,2.1,9,2.1,14.1v58.3h-7.8c-1.7,0-3.1-0.3-4-0.9c-0.9-0.6-1.6-1.6-2.2-3.2
		l-1.9-8c-2.3,2.2-4.7,4.1-6.9,5.7c-2.3,1.7-4.7,3.1-7.2,4.2c-2.5,1.2-5.1,2.1-8,2.7c-2.8,0.6-5.9,0.9-9.4,0.9
		c-3.6,0-7-0.5-10.1-1.5c-3.2-1-5.9-2.5-8.2-4.5c-2.3-2-4.2-4.6-5.5-7.7c-1.4-3.1-2-6.6-2-10.7c0-3.6,1-7.1,2.9-10.4
		c1.9-3.3,5.1-6.3,9.5-9c4.4-2.6,10.2-4.8,17.3-6.5c7.1-1.7,15.9-2.6,26.2-2.9v-6.7c0-6.9-1.5-12.1-4.4-15.5
		c-2.9-3.4-7.3-5.1-13-5.1c-3.8,0-7.1,0.5-9.7,1.4c-2.6,1-4.9,2-6.8,3.2c-1.9,1.2-3.5,2.2-4.9,3.2c-1.4,1-2.9,1.4-4.4,1.4
		c-1.2,0-2.2-0.3-3.1-1c-0.9-0.7-1.6-1.4-2.1-2.3L154.6,89.1z M206,127.2c-7.1,0.2-13.2,0.8-18.2,1.7c-5,0.9-9,2-12.1,3.5
		c-3.1,1.4-5.4,3.1-6.8,5.1c-1.4,2-2.1,4.1-2.1,6.5c0,2.3,0.4,4.2,1.1,5.9c0.7,1.7,1.8,3,3.1,4.1c1.3,1,2.8,1.8,4.5,2.3
		c1.7,0.5,3.6,0.7,5.7,0.7c2.7,0,5.2-0.3,7.4-0.8s4.4-1.3,6.3-2.3c2-1,3.9-2.2,5.7-3.6c1.8-1.4,3.6-3.1,5.3-5V127.2z"/>
	<path class="st0" d="M307.3,93.5c-0.5,0.7-1.1,1.2-1.6,1.6c-0.5,0.4-1.2,0.6-2.2,0.6c-1,0-2-0.4-3-1.1c-1.1-0.7-2.4-1.6-4-2.4
		c-1.6-0.9-3.5-1.7-5.8-2.4c-2.2-0.7-5-1.1-8.3-1.1c-4.3,0-8.1,0.8-11.4,2.3c-3.3,1.6-6,3.8-8.2,6.7c-2.2,2.9-3.9,6.4-5,10.5
		c-1.1,4.1-1.7,8.8-1.7,13.9c0,5.3,0.6,10.1,1.8,14.3c1.2,4.2,2.9,7.7,5.1,10.5c2.2,2.9,4.9,5,8.1,6.5c3.2,1.5,6.7,2.2,10.6,2.2
		c3.8,0,6.9-0.5,9.4-1.4c2.5-0.9,4.5-1.9,6.1-3c1.6-1.1,3-2.1,4-3c1.1-0.9,2.2-1.4,3.3-1.4c1.4,0,2.5,0.5,3.3,1.6l5,6.5
		c-2.1,2.6-4.5,4.8-7.1,6.6c-2.6,1.8-5.4,3.3-8.3,4.4c-2.9,1.1-6,2-9.2,2.5c-3.2,0.5-6.5,0.8-9.8,0.8c-5.7,0-11-1-16-3.1
		c-5-2.1-9.2-5.2-12.9-9.2c-3.6-4-6.5-9-8.6-14.8c-2.1-5.8-3.1-12.5-3.1-19.9c0-6.8,0.9-13,2.8-18.8c1.9-5.8,4.7-10.7,8.4-14.9
		c3.7-4.2,8.2-7.4,13.6-9.8c5.4-2.4,11.6-3.6,18.5-3.6c6.5,0,12.3,1.1,17.3,3.1c5,2.1,9.4,5.1,13.3,8.9L307.3,93.5z"/>
	<path class="st0" d="M343.3,35v77.7h4.1c1.3,0,2.3-0.2,3.2-0.5c0.8-0.4,1.7-1.1,2.6-2.2l27.4-30.1c0.8-1.1,1.8-2,2.8-2.6
		c1-0.6,2.3-0.9,3.9-0.9h16l-32.3,35.4c-1.7,2.2-3.6,3.9-5.6,5.1c1.1,0.8,2.1,1.7,3,2.7c0.9,1,1.7,2.1,2.6,3.3l34.4,44.9h-15.8
		c-1.4,0-2.7-0.2-3.7-0.7c-1.1-0.5-2-1.3-2.8-2.6l-28.3-36.7c-0.9-1.4-1.8-2.3-2.7-2.7c-0.9-0.4-2.2-0.6-4.1-0.6h-4.7v43.3h-17.5V35
		H343.3z"/>
</g>
<g id="XMLID_2_">
	<path class="st1" d="M461.6,50.4c13.2,0,23.3,2.8,30.2,8.5c6.9,5.7,10.3,14.2,10.3,25.6c0,5-1,9.5-2.9,13.7
		c-1.9,4.2-4.7,7.8-8.2,10.9c-3.6,3-7.8,5.4-12.8,7.1c-5,1.7-10.5,2.5-16.6,2.5h-23.5v49.1h-4.6V50.4H461.6z M461.6,114.9
		c5.5,0,10.5-0.8,14.9-2.3c4.4-1.6,8.2-3.7,11.3-6.4c3.1-2.7,5.5-6,7.1-9.7s2.5-7.7,2.5-12c0-9.9-3-17.5-8.9-22.6
		c-6-5.2-14.9-7.8-26.9-7.8h-23.5v60.9H461.6z"/>
	<path class="st1" d="M515.6,97.2c4.1-4.2,8.4-7.5,12.9-9.7c4.5-2.2,9.7-3.3,15.4-3.3c4.3,0,8,0.7,11.2,2c3.2,1.4,5.8,3.3,7.9,5.9
		c2.1,2.6,3.6,5.7,4.6,9.3c1,3.6,1.5,7.8,1.5,12.3v54.1h-1.5c-1.1,0-1.8-0.6-1.9-1.8l-0.8-12.2c-2.3,2.3-4.6,4.5-6.8,6.3
		c-2.3,1.9-4.7,3.5-7.3,4.8c-2.6,1.3-5.3,2.3-8.3,3c-3,0.7-6.2,1.1-9.8,1.1c-2.6,0-5.2-0.4-7.8-1.2c-2.6-0.8-4.9-2-6.9-3.7
		c-2.1-1.7-3.7-3.8-5-6.5c-1.3-2.6-1.9-5.8-1.9-9.6c0-3.6,1-6.9,3.1-9.9c2.1-3,5.3-5.5,9.7-7.6c4.4-2.1,10-3.8,16.7-5.1
		c6.7-1.3,14.8-2,24-2.2v-9.8c0-8.2-1.8-14.6-5.3-19.2c-3.6-4.6-8.9-6.8-15.9-6.8c-4.2,0-7.8,0.6-10.8,1.8c-3,1.2-5.5,2.5-7.5,4
		c-2,1.5-3.6,2.8-4.8,4c-1.2,1.2-2.1,1.8-2.7,1.8c-0.6,0-1.1-0.3-1.5-0.9L515.6,97.2z M564.8,126.5c-16.8,0.6-29.2,2.6-37.3,6.3
		c-8,3.6-12.1,8.7-12.1,15.3c0,3.1,0.5,5.7,1.5,7.9c1,2.2,2.4,4.1,4.1,5.6c1.7,1.5,3.6,2.6,5.8,3.3c2.2,0.7,4.4,1,6.7,1
		c3.6,0,6.8-0.4,9.8-1.2c3-0.8,5.7-1.9,8.2-3.3c2.5-1.4,4.8-3,7-4.9c2.2-1.9,4.3-3.9,6.3-6V126.5z"/>
	<path class="st1" d="M638.1,93.9c-0.3,0.5-0.7,0.8-1.3,0.8c-0.5,0-1.2-0.4-2.1-1.1c-0.9-0.8-2.2-1.6-3.8-2.4
		c-1.6-0.9-3.6-1.7-6.1-2.4c-2.4-0.8-5.4-1.1-9-1.1c-3.3,0-6.3,0.5-9,1.5c-2.7,1-5,2.3-7,3.9c-1.9,1.6-3.5,3.5-4.5,5.7
		c-1.1,2.2-1.6,4.4-1.6,6.8c0,2.8,0.7,5.1,2,7c1.4,1.9,3.2,3.5,5.4,4.8c2.2,1.3,4.8,2.4,7.6,3.3c2.8,0.9,5.7,1.8,8.7,2.8
		c3,0.9,5.8,1.9,8.7,3c2.8,1.1,5.4,2.4,7.6,3.9c2.2,1.6,4,3.5,5.4,5.8c1.4,2.3,2,5.1,2,8.4c0,3.5-0.6,6.7-1.8,9.7
		c-1.2,3-3,5.6-5.4,7.9c-2.4,2.3-5.3,4-8.7,5.3c-3.4,1.3-7.3,1.9-11.7,1.9c-3,0-5.6-0.2-8-0.7c-2.4-0.5-4.6-1.1-6.7-2
		c-2.1-0.9-4-1.9-5.8-3.1c-1.8-1.2-3.5-2.6-5.2-4.1l1.1-1.4c0.2-0.3,0.4-0.5,0.6-0.6c0.2-0.1,0.5-0.2,1-0.2c0.6,0,1.3,0.5,2.4,1.4
		c1,0.9,2.4,1.9,4.2,3c1.8,1.1,4,2.1,6.6,3c2.7,0.9,6,1.4,9.9,1.4c3.8,0,7.2-0.5,10.1-1.6c2.9-1.1,5.4-2.6,7.3-4.5
		c2-1.9,3.5-4.1,4.5-6.6s1.5-5.2,1.5-8.1c0-3-0.7-5.5-2-7.5s-3.2-3.7-5.4-5.1c-2.2-1.4-4.8-2.5-7.6-3.5c-2.8-0.9-5.7-1.9-8.7-2.8
		c-3-0.9-5.8-1.8-8.7-2.9c-2.8-1-5.4-2.3-7.6-3.8c-2.2-1.5-4-3.4-5.4-5.6c-1.4-2.2-2-5-2-8.3c0-2.8,0.6-5.5,1.9-8.1
		c1.3-2.6,3-4.9,5.3-6.8c2.3-2,5-3.5,8.2-4.7s6.8-1.8,10.7-1.8c4.8,0,9,0.7,12.7,2c3.7,1.3,7.2,3.5,10.4,6.3L638.1,93.9z"/>
	<path class="st1" d="M705.1,93.9c-0.3,0.5-0.7,0.8-1.3,0.8c-0.5,0-1.2-0.4-2.1-1.1c-0.9-0.8-2.2-1.6-3.8-2.4
		c-1.6-0.9-3.6-1.7-6.1-2.4c-2.4-0.8-5.4-1.1-9-1.1c-3.3,0-6.3,0.5-9,1.5c-2.7,1-5,2.3-7,3.9c-1.9,1.6-3.5,3.5-4.5,5.7
		c-1.1,2.2-1.6,4.4-1.6,6.8c0,2.8,0.7,5.1,2,7c1.4,1.9,3.2,3.5,5.4,4.8c2.2,1.3,4.8,2.4,7.6,3.3c2.8,0.9,5.7,1.8,8.7,2.8
		c3,0.9,5.8,1.9,8.7,3c2.8,1.1,5.4,2.4,7.6,3.9c2.2,1.6,4,3.5,5.4,5.8c1.4,2.3,2,5.1,2,8.4c0,3.5-0.6,6.7-1.8,9.7
		c-1.2,3-3,5.6-5.4,7.9c-2.4,2.3-5.3,4-8.7,5.3c-3.4,1.3-7.3,1.9-11.7,1.9c-3,0-5.6-0.2-8-0.7c-2.4-0.5-4.6-1.1-6.7-2
		c-2.1-0.9-4-1.9-5.8-3.1c-1.8-1.2-3.5-2.6-5.2-4.1l1.1-1.4c0.2-0.3,0.4-0.5,0.6-0.6c0.2-0.1,0.5-0.2,1-0.2c0.6,0,1.3,0.5,2.4,1.4
		c1,0.9,2.4,1.9,4.2,3c1.8,1.1,4,2.1,6.6,3c2.7,0.9,6,1.4,9.9,1.4c3.8,0,7.2-0.5,10.1-1.6c2.9-1.1,5.4-2.6,7.3-4.5
		c2-1.9,3.5-4.1,4.5-6.6s1.5-5.2,1.5-8.1c0-3-0.7-5.5-2-7.5s-3.2-3.7-5.4-5.1c-2.2-1.4-4.8-2.5-7.6-3.5c-2.8-0.9-5.7-1.9-8.7-2.8
		c-3-0.9-5.8-1.8-8.7-2.9c-2.8-1-5.4-2.3-7.6-3.8c-2.2-1.5-4-3.4-5.4-5.6c-1.4-2.2-2-5-2-8.3c0-2.8,0.6-5.5,1.9-8.1
		c1.3-2.6,3-4.9,5.3-6.8c2.3-2,5-3.5,8.2-4.7s6.8-1.8,10.7-1.8c4.8,0,9,0.7,12.7,2c3.7,1.3,7.2,3.5,10.4,6.3L705.1,93.9z"/>
</g>
</svg>
