<?xml version="1.0" encoding="utf-8"?>
<!-- Generator: Adobe Illustrator 19.0.0, SVG Export Plug-In . SVG Version: 6.00 Build 0)  -->
<svg version="1.1" baseProfile="tiny" id="Layer_1" xmlns="http://www.w3.org/2000/svg" xmlns:xlink="http://www.w3.org/1999/xlink"
	 x="0px" y="0px" viewBox="0 0 730.3 203" xml:space="preserve">
<g id="XMLID_1_">
	<path id="XMLID_14_" d="M115.2,154.2h-14.9V93.8H32.6v60.5H17.7V25.8h14.9v54.7h67.7V25.8h14.9V154.2z"/>
	<path id="XMLID_16_" d="M203.9,154.2l-2.9-13.7h-0.7c-4.8,6-9.6,10.1-14.4,12.3c-4.8,2.1-10.7,3.2-17.9,3.2c-9.6,0-17-2.5-22.5-7.4
		c-5.4-4.9-8.1-11.9-8.1-21c0-19.5,15.6-29.6,46.7-30.6l16.3-0.5v-6c0-7.6-1.6-13.1-4.9-16.7s-8.5-5.4-15.6-5.4
		c-8,0-17.1,2.5-27.2,7.4l-4.5-11.2c4.7-2.6,9.9-4.6,15.6-6.1c5.7-1.5,11.3-2.2,17-2.2c11.5,0,20,2.5,25.5,7.6s8.3,13.3,8.3,24.5
		v65.7H203.9z M171,144c9.1,0,16.2-2.5,21.4-7.5c5.2-5,7.8-12,7.8-20.9v-8.7l-14.6,0.6c-11.6,0.4-20,2.2-25.1,5.4
		c-5.1,3.2-7.7,8.2-7.7,14.9c0,5.3,1.6,9.3,4.8,12C160.7,142.6,165.2,144,171,144z"/>
	<path id="XMLID_19_" d="M279.7,156c-13.9,0-24.7-4.3-32.4-12.9c-7.6-8.6-11.5-20.7-11.5-36.4c0-16.1,3.9-28.6,11.6-37.4
		c7.8-8.8,18.8-13.2,33.2-13.2c4.6,0,9.3,0.5,13.9,1.5c4.6,1,8.3,2.2,10.9,3.5l-4.5,12.4c-3.2-1.3-6.7-2.4-10.5-3.2
		c-3.8-0.8-7.2-1.3-10.1-1.3c-19.6,0-29.4,12.5-29.4,37.4c0,11.8,2.4,20.9,7.2,27.2c4.8,6.3,11.9,9.5,21.2,9.5
		c8,0,16.3-1.7,24.7-5.2V151C297.6,154.3,289.5,156,279.7,156z"/>
	<path id="XMLID_21_" d="M337.7,104.9c2.5-3.6,6.4-8.3,11.5-14.1l31.1-33h17.3l-39,41l41.7,55.3h-17.7l-34-45.5l-11,9.5v36h-14.4
		V17.5h14.4V90c0,3.2-0.2,8.2-0.7,14.9H337.7z"/>
</g>
<g id="XMLID_2_">
	<path id="XMLID_4_" d="M490.6,69.3c0,11.5-3.9,20.4-11.7,26.5c-7.8,6.1-18.9,9.2-33.3,9.2h-18.4v49.3h-8.3V35H448
		C476.4,35,490.6,46.4,490.6,69.3z M427.1,97.8h16.4c13.4,0,23.1-2.2,29.1-6.6c6-4.4,9-11.6,9-21.6c0-9.2-2.8-16-8.5-20.4
		c-5.7-4.4-14.4-6.6-26.3-6.6h-19.7V97.8z"/>
	<path id="XMLID_7_" d="M564.9,154.2l-2-14h-0.7c-4.5,5.7-9,9.7-13.7,12.1c-4.7,2.4-10.3,3.5-16.7,3.5c-8.7,0-15.5-2.2-20.3-6.7
		c-4.8-4.5-7.3-10.6-7.3-18.5c0-8.6,3.6-15.4,10.8-20.1c7.2-4.8,17.6-7.3,31.3-7.6l16.9-0.5v-5.9c0-8.4-1.7-14.8-5.1-19.1
		c-3.4-4.3-8.9-6.4-16.6-6.4c-8.2,0-16.7,2.3-25.5,6.8l-3-7c9.7-4.6,19.4-6.8,28.9-6.8c9.7,0,17,2.5,21.8,7.6
		c4.8,5.1,7.2,12.9,7.2,23.6v59H564.9z M532.3,148.5c9.5,0,16.9-2.7,22.4-8.1c5.5-5.4,8.2-12.9,8.2-22.5v-8.7l-15.5,0.7
		c-12.4,0.6-21.3,2.5-26.6,5.8c-5.3,3.3-8,8.4-8,15.4c0,5.5,1.7,9.9,5.1,12.9C521.3,147,526.1,148.5,532.3,148.5z"/>
	<path id="XMLID_10_" d="M651.2,131.2c0,7.9-3,14-9.1,18.3c-6,4.3-14.6,6.4-25.7,6.4c-11.9,0-21.3-1.8-28.2-5.5v-8.7
		c8.9,4.5,18.3,6.7,28.2,6.7c8.8,0,15.4-1.5,19.9-4.4c4.5-2.9,6.8-6.8,6.8-11.6c0-4.5-1.8-8.2-5.4-11.3c-3.6-3-9.6-6-17.8-9
		c-8.9-3.2-15.1-6-18.7-8.3s-6.3-4.9-8.1-7.8c-1.8-2.9-2.7-6.5-2.7-10.6c0-6.6,2.8-11.9,8.4-15.7c5.6-3.9,13.4-5.8,23.4-5.8
		c9.6,0,18.6,1.8,27.2,5.4l-3,7.3c-8.7-3.6-16.8-5.4-24.2-5.4c-7.2,0-13,1.2-17.2,3.6c-4.2,2.4-6.4,5.7-6.4,9.9
		c0,4.6,1.6,8.3,4.9,11.1s9.7,5.9,19.3,9.3c8,2.9,13.8,5.5,17.5,7.8c3.6,2.3,6.4,4.9,8.2,7.9C650.3,123.8,651.2,127.2,651.2,131.2z"
		/>
	<path id="XMLID_12_" d="M725.7,131.2c0,7.9-3,14-9.1,18.3c-6,4.3-14.6,6.4-25.7,6.4c-11.9,0-21.3-1.8-28.2-5.5v-8.7
		c8.9,4.5,18.3,6.7,28.2,6.7c8.8,0,15.4-1.5,19.9-4.4c4.5-2.9,6.8-6.8,6.8-11.6c0-4.5-1.8-8.2-5.4-11.3c-3.6-3-9.6-6-17.8-9
		c-8.9-3.2-15.1-6-18.7-8.3s-6.3-4.9-8.1-7.8c-1.8-2.9-2.7-6.5-2.7-10.6c0-6.6,2.8-11.9,8.4-15.7c5.6-3.9,13.4-5.8,23.4-5.8
		c9.6,0,18.6,1.8,27.2,5.4l-3,7.3c-8.7-3.6-16.8-5.4-24.2-5.4c-7.2,0-13,1.2-17.2,3.6c-4.2,2.4-6.4,5.7-6.4,9.9
		c0,4.6,1.6,8.3,4.9,11.1s9.7,5.9,19.3,9.3c8,2.9,13.8,5.5,17.5,7.8c3.6,2.3,6.4,4.9,8.2,7.9C724.8,123.8,725.7,127.2,725.7,131.2z"
		/>
</g>
<g id="XMLID_3_">
</g>
<g id="XMLID_23_">
</g>
<g id="XMLID_24_">
</g>
<g id="XMLID_25_">
</g>
<g id="XMLID_26_">
</g>
<g id="XMLID_27_">
</g>
</svg>
